<svg xmlns="http://www.w3.org/2000/svg" width="146.14" height="50" viewBox="0 0 146.14 50" role="img" aria-label="GitHub">
  <defs>
    <linearGradient id="ico" x1="0" y1="0" x2="0" y2="1">
      <stop offset="0%" stop-color="#fdfdfe"/><stop offset="48%" stop-color="#c4c8ce"/>
      <stop offset="52%" stop-color="#9296a0"/><stop offset="100%" stop-color="#e9ebee"/>
    </linearGradient>
    <linearGradient id="txt" x1="0" y1="0" x2="0" y2="1">
      <stop offset="0%" stop-color="#ffffff"/><stop offset="55%" stop-color="#d6d9de"/>
      <stop offset="100%" stop-color="#aeb2ba"/>
    </linearGradient>
    <linearGradient id="pill" x1="0" y1="0" x2="0" y2="1">
      <stop offset="0%" stop-color="#1b1d22"/><stop offset="100%" stop-color="#0e0f12"/>
    </linearGradient>
    <linearGradient id="edge" x1="0" y1="0" x2="0" y2="1">
      <stop offset="0%" stop-color="#6b6f77"/><stop offset="50%" stop-color="#3a3d44"/>
      <stop offset="100%" stop-color="#5a5e66"/>
    </linearGradient>
  </defs>
  <rect x="0.00" y="0" width="146.14" height="50" rx="25.0" fill="url(#pill)" stroke="url(#edge)" stroke-width="1.2"/>
    <rect x="1.00" y="1" width="144.14" height="1.4" rx="0.7" fill="#ffffff" opacity="0.10"/>
    <g transform="translate(20,14) scale(0.9167)"><path d="M14.25.18l.9.2.73.26.59.3.45.32.34.34.25.34.16.33.1.3.04.26.02.2-.01.13V8.5l-.05.63-.13.55-.21.46-.26.38-.3.31-.33.25-.35.19-.35.14-.33.1-.3.07-.26.04-.21.02H8.77l-.69.05-.59.14-.5.22-.41.27-.33.32-.27.35-.2.36-.15.37-.1.35-.07.32-.04.27-.02.21v3.06H3.17l-.21-.03-.28-.07-.32-.12-.35-.18-.36-.26-.36-.36-.35-.46-.32-.59-.28-.73-.21-.88-.14-1.05-.05-1.23.06-1.22.16-1.04.24-.87.32-.71.36-.57.4-.44.42-.33.42-.24.4-.16.36-.1.32-.05.24-.01h.16l.06.01h8.16v-.83H6.18l-.01-2.75-.02-.37.05-.34.11-.31.17-.28.25-.26.31-.23.38-.2.44-.18.51-.15.58-.12.64-.1.71-.06.77-.04.84-.02 1.27.05zm-6.3 1.98l-.23.33-.08.41.08.41.23.34.33.22.41.09.41-.09.33-.22.23-.34.08-.41-.08-.41-.23-.33-.33-.22-.41-.09-.41.09zm13.09 3.95l.28.06.32.12.35.18.36.27.36.35.35.47.32.59.28.73.21.88.14 1.04.05 1.23-.06 1.23-.16 1.04-.24.86-.32.71-.36.57-.4.45-.42.33-.42.24-.4.16-.36.09-.32.05-.24.02-.16-.01h-8.22v.82h5.84l.01 2.76.02.36-.05.34-.11.31-.17.29-.25.25-.31.24-.38.2-.44.17-.51.15-.58.13-.64.09-.71.07-.77.04-.84.01-1.27-.04-1.07-.14-.9-.2-.73-.25-.59-.3-.45-.33-.34-.34-.25-.34-.16-.33-.1-.3-.04-.25-.02-.2.01-.13v-5.34l.05-.64.13-.54.21-.46.26-.38.3-.32.33-.24.35-.2.35-.14.33-.1.3-.06.26-.04.21-.02.13-.01h5.84l.69-.05.59-.14.5-.21.41-.28.33-.32.27-.35.2-.36.15-.36.1-.35.07-.32.04-.28.02-.21V6.07h2.09l.14.01zm-6.47 14.25l-.23.33-.08.41.08.41.23.33.33.23.41.08.41-.08.33-.23.23-.33.08-.41-.08-.41-.23-.33-.33-.23-.41-.08-.41.08z" fill="url(#ico)"/>
    </g><g transform="translate(54,32.55)"><path d="M1.672 0.0V-15.091999999999999H9.24Q10.911999999999999 -15.091999999999999 12.001 -14.498Q13.09 -13.904 13.64 -12.826Q14.19 -11.748 14.19 -10.251999999999999Q14.19 -8.777999999999999 13.617999999999999 -7.677999999999999Q13.046 -6.577999999999999 11.913 -5.972999999999999Q10.78 -5.367999999999999 9.086 -5.367999999999999H4.532V0.0ZM4.532 -7.81H8.998Q10.097999999999999 -7.81 10.703 -8.459Q11.308 -9.107999999999999 11.308 -10.251999999999999Q11.308 -11.022 11.044 -11.55Q10.78 -12.078 10.274 -12.363999999999999Q9.767999999999999 -12.649999999999999 8.998 -12.649999999999999H4.532Z M17.709999999999997 4.004Q16.895999999999997 4.004 16.389999999999997 3.8829999999999996Q15.883999999999999 3.7619999999999996 15.817999999999998 3.7399999999999998V1.8259999999999998H17.049999999999997Q17.511999999999997 1.8259999999999998 17.973999999999997 1.5839999999999999Q18.436 1.3419999999999999 18.81 0.9239999999999999Q19.183999999999997 0.506 19.36 0.0L14.849999999999998 -11.572H17.665999999999997L19.822 -6.028Q19.976 -5.654 20.141 -5.082Q20.305999999999997 -4.51 20.482 -3.905Q20.657999999999998 -3.3 20.767999999999997 -2.816H20.878Q20.965999999999998 -3.146 21.076 -3.564Q21.186 -3.9819999999999998 21.307 -4.422Q21.427999999999997 -4.862 21.56 -5.279999999999999Q21.692 -5.6979999999999995 21.779999999999998 -6.005999999999999L23.54 -11.572H26.267999999999997L22.395999999999997 -0.594Q22.066 0.32999999999999996 21.659 1.166Q21.252 2.002 20.713 2.6399999999999997Q20.174 3.278 19.436999999999998 3.641Q18.7 4.004 17.709999999999997 4.004Z M30.866 0.264Q29.788 0.264 29.172 -0.16499999999999998Q28.556 -0.594 28.303 -1.265Q28.05 -1.936 28.05 -2.6399999999999997V-9.372H26.664V-11.572H28.116L28.6 -14.806H30.734V-11.572H32.736V-9.372H30.734V-2.904Q30.734 -2.4419999999999997 30.976 -2.189Q31.218 -1.936 31.701999999999998 -1.936H32.736V-0.088Q32.516 0.0 32.197 0.077Q31.878 0.154 31.526 0.20900000000000002Q31.174 0.264 30.866 0.264Z M34.716 0.0V-15.905999999999999H37.4V-10.251999999999999H37.554Q37.928 -10.713999999999999 38.434 -11.065999999999999Q38.94 -11.418 39.589 -11.626999999999999Q40.238 -11.835999999999999 41.03 -11.835999999999999Q42.13 -11.835999999999999 42.977000000000004 -11.439999999999998Q43.824 -11.043999999999999 44.308 -10.163999999999998Q44.792 -9.283999999999999 44.792 -7.81V0.0H42.086V-7.326Q42.086 -7.941999999999999 41.943 -8.349Q41.8 -8.756 41.525 -9.009Q41.25 -9.261999999999999 40.854 -9.372Q40.458 -9.482 39.974000000000004 -9.482Q39.248000000000005 -9.482 38.665000000000006 -9.129999999999999Q38.082 -8.777999999999999 37.741 -8.161999999999999Q37.4 -7.545999999999999 37.4 -6.731999999999999V0.0Z M52.712 0.264Q50.82 0.264 49.544 -0.385Q48.268 -1.034 47.629999999999995 -2.376Q46.992 -3.718 46.992 -5.786Q46.992 -7.8759999999999994 47.629999999999995 -9.207Q48.268 -10.538 49.544 -11.187Q50.82 -11.835999999999999 52.712 -11.835999999999999Q54.626 -11.835999999999999 55.891 -11.187Q57.156 -10.538 57.794 -9.207Q58.432 -7.8759999999999994 58.432 -5.786Q58.432 -3.718 57.794 -2.376Q57.156 -1.034 55.891 -0.385Q54.626 0.264 52.712 0.264ZM52.712 -1.936Q53.768 -1.936 54.417 -2.343Q55.066 -2.75 55.363 -3.5749999999999997Q55.66 -4.3999999999999995 55.66 -5.632V-5.9399999999999995Q55.66 -7.172 55.363 -7.997Q55.066 -8.822 54.417 -9.229Q53.768 -9.636 52.712 -9.636Q51.656 -9.636 51.007000000000005 -9.229Q50.358000000000004 -8.822 50.06100000000001 -7.997Q49.764 -7.172 49.764 -5.9399999999999995V-5.632Q49.764 -4.3999999999999995 50.06100000000001 -3.5749999999999997Q50.358000000000004 -2.75 51.007000000000005 -2.343Q51.656 -1.936 52.712 -1.936Z M60.72 0.0V-11.572H62.964L63.184 -10.032H63.338Q63.734 -10.559999999999999 64.273 -10.966999999999999Q64.812 -11.373999999999999 65.505 -11.604999999999999Q66.198 -11.835999999999999 67.03399999999999 -11.835999999999999Q68.134 -11.835999999999999 68.981 -11.439999999999998Q69.828 -11.043999999999999 70.312 -10.163999999999998Q70.79599999999999 -9.283999999999999 70.79599999999999 -7.81V0.0H68.09V-7.326Q68.09 -7.941999999999999 67.947 -8.349Q67.804 -8.756 67.529 -9.009Q67.254 -9.261999999999999 66.858 -9.372Q66.462 -9.482 65.978 -9.482Q65.252 -9.482 64.669 -9.129999999999999Q64.086 -8.777999999999999 63.745 -8.161999999999999Q63.403999999999996 -7.545999999999999 63.403999999999996 -6.731999999999999V0.0Z" fill="url(#txt)"/>
    </g>
</svg>
