<svg xmlns="http://www.w3.org/2000/svg" width="145.88" height="50" viewBox="0 0 145.88 50" role="img" aria-label="Instagram">
  <defs>
    <linearGradient id="ico" x1="0" y1="0" x2="0" y2="1">
      <stop offset="0%" stop-color="#fdfdfe"/><stop offset="48%" stop-color="#c4c8ce"/>
      <stop offset="52%" stop-color="#9296a0"/><stop offset="100%" stop-color="#e9ebee"/>
    </linearGradient>
    <linearGradient id="txt" x1="0" y1="0" x2="0" y2="1">
      <stop offset="0%" stop-color="#ffffff"/><stop offset="55%" stop-color="#d6d9de"/>
      <stop offset="100%" stop-color="#aeb2ba"/>
    </linearGradient>
    <linearGradient id="pill" x1="0" y1="0" x2="0" y2="1">
      <stop offset="0%" stop-color="#1b1d22"/><stop offset="100%" stop-color="#0e0f12"/>
    </linearGradient>
    <linearGradient id="edge" x1="0" y1="0" x2="0" y2="1">
      <stop offset="0%" stop-color="#6b6f77"/><stop offset="50%" stop-color="#3a3d44"/>
      <stop offset="100%" stop-color="#5a5e66"/>
    </linearGradient>
  </defs>
  <rect x="0" y="0" width="145.88" height="50" rx="25" fill="url(#pill)" stroke="url(#edge)" stroke-width="1.2"/>
  <rect x="1" y="1" width="143.88" height="1.4" rx="0.7" fill="#ffffff" opacity="0.10"/>
  <g transform="translate(20,14) scale(0.9167)">
    <path d="M12 2.163c3.204 0 3.584.012 4.85.07 3.252.148 4.771 1.691 4.919 4.919.058 1.265.069 1.645.069 4.849 0 3.205-.012 3.584-.069 4.849-.149 3.225-1.664 4.771-4.919 4.919-1.266.058-1.644.07-4.85.07-3.204 0-3.584-.012-4.849-.07-3.26-.149-4.771-1.699-4.919-4.92-.058-1.265-.07-1.644-.07-4.849 0-3.204.013-3.583.07-4.849.149-3.227 1.664-4.771 4.919-4.919 1.266-.057 1.645-.069 4.849-.069zm0-2.163c-3.259 0-3.667.014-4.947.072-4.358.2-6.78 2.618-6.98 6.98-.059 1.281-.073 1.689-.073 4.948 0 3.259.014 3.668.072 4.948.2 4.358 2.618 6.78 6.98 6.98 1.281.058 1.689.072 4.948.072 3.259 0 3.668-.014 4.948-.072 4.354-.2 6.782-2.618 6.979-6.98.059-1.28.073-1.689.073-4.948 0-3.259-.014-3.667-.072-4.947-.196-4.354-2.617-6.78-6.979-6.98-1.281-.059-1.69-.073-4.949-.073zm0 5.838c-3.403 0-6.162 2.759-6.162 6.162s2.759 6.163 6.162 6.163 6.162-2.759 6.162-6.163c0-3.403-2.759-6.162-6.162-6.162zm0 10.162c-2.209 0-4-1.79-4-4 0-2.209 1.791-4 4-4s4 1.791 4 4c0 2.21-1.791 4-4 4zm6.406-11.845c-.796 0-1.441.645-1.441 1.44s.645 1.44 1.441 1.44c.795 0 1.439-.645 1.439-1.44s-.644-1.44-1.439-1.44z" fill="url(#ico)"/>
  </g>
  <g transform="translate(54,32.55)">
    <path d="M3.590673828125 0.0H1.2091796875V-10.572949218749999H3.590673828125Z M13.057666015625 0.0H10.73515625V-4.195263671875Q10.73515625 -5.9500488281249995 9.48173828125 -5.9500488281249995Q8.8771484375 -5.9500488281249995 8.486376953125 -5.485546875Q8.09560546875 -5.021044921875 8.09560546875 -4.305859375V0.0H5.7657226562499995V-7.55H8.09560546875V-6.3555664062499995H8.12509765625Q8.958251953125 -7.734326171875 10.550830078125 -7.734326171875Q13.057666015625 -7.734326171875 13.057666015625 -4.6229003906249995Z M14.406933593749999 -0.199072265625V-2.086572265625Q14.98203125 -1.7400390625 15.553442382812499 -1.570458984375Q16.124853515625 -1.40087890625 16.63359375 -1.40087890625Q17.2529296875 -1.40087890625 17.6105224609375 -1.570458984375Q17.968115234375 -1.7400390625 17.968115234375 -2.086572265625Q17.968115234375 -2.307763671875 17.805908203125 -2.455224609375Q17.643701171875 -2.602685546875 17.389331054687503 -2.71328125Q17.1349609375 -2.823876953125 16.832666015625 -2.912353515625Q16.53037109375 -3.000830078125 16.2501953125 -3.11142578125Q15.800439453125 -3.281005859375 15.4575927734375 -3.4763916015625Q15.11474609375 -3.67177734375 14.8824951171875 -3.9298339843749996Q14.650244140625 -4.187890625 14.5285888671875 -4.52705078125Q14.406933593749999 -4.8662109375 14.406933593749999 -5.330712890625Q14.406933593749999 -5.964794921875 14.683422851562499 -6.421923828124999Q14.959912109374999 -6.879052734375 15.420727539062499 -7.1702880859375Q15.881542968749999 -7.4615234374999995 16.4750732421875 -7.5979248046875Q17.068603515625 -7.734326171875 17.71005859375 -7.734326171875Q18.21142578125 -7.734326171875 18.7275390625 -7.656909179687499Q19.24365234375 -7.5794921875 19.74501953125 -7.43203125V-5.6330078125Q19.30263671875 -5.891064453125 18.7975830078125 -6.0200927734375Q18.292529296875 -6.14912109375 17.805908203125 -6.14912109375Q17.57734375 -6.14912109375 17.3745849609375 -6.108569335937499Q17.171826171875 -6.068017578125 17.0169921875 -5.9906005859375Q16.862158203125 -5.9131835937499995 16.773681640625 -5.7915283203125Q16.685205078125 -5.669873046875 16.685205078125 -5.5150390625Q16.685205078125 -5.30859375 16.817919921875003 -5.1611328125Q16.950634765625 -5.013671875 17.164453125 -4.9067626953125Q17.378271484375 -4.799853515625 17.6400146484375 -4.7150634765625Q17.9017578125 -4.6302734375 18.159814453125 -4.541796875Q18.62431640625 -4.37958984375 19.000341796875 -4.187890625Q19.3763671875 -3.99619140625 19.6454833984375 -3.738134765625Q19.914599609375 -3.480078125 20.0583740234375 -3.133544921875Q20.2021484375 -2.78701171875 20.2021484375 -2.307763671875Q20.2021484375 -1.63681640625 19.9109130859375 -1.1612548828125Q19.619677734375 -0.685693359375 19.1367431640625 -0.3870849609375Q18.65380859375 -0.0884765625 18.0234130859375 0.0479248046875Q17.393017578125 0.184326171875 16.714697265625 0.184326171875Q15.46865234375 0.184326171875 14.406933593749999 -0.199072265625Z M26.107958984375 -0.0884765625Q25.591845703125 0.184326171875 24.55224609375 0.184326171875Q22.0896484375 0.184326171875 22.0896484375 -2.37412109375V-5.832080078125H20.86572265625V-7.55H22.0896484375V-9.179443359375L24.412158203125 -9.843017578125V-7.55H26.107958984375V-5.832080078125H24.412158203125V-2.779638671875Q24.412158203125 -1.599951171875 25.34853515625 -1.599951171875Q25.7171875 -1.599951171875 26.107958984375 -1.81376953125Z M33.702197265625 0.0H31.49765625V-1.083837890625H31.468164062499998Q30.708740234375 0.184326171875 29.219384765624998 0.184326171875Q28.12080078125 0.184326171875 27.4904052734375 -0.4386962890625Q26.860009765624998 -1.06171875 26.860009765624998 -2.101318359375Q26.860009765624998 -4.298486328125 29.4626953125 -4.637646484375L31.512402343749997 -4.91044921875Q31.512402343749997 -6.14912109375 30.1705078125 -6.14912109375Q28.821240234375 -6.14912109375 27.6046875 -5.345458984375V-7.100244140625Q28.09130859375 -7.3509277343749995 28.9355224609375 -7.542626953125Q29.779736328125 -7.734326171875 30.472802734374998 -7.734326171875Q33.702197265625 -7.734326171875 33.702197265625 -4.5123046874999995ZM31.512402343749997 -3.0671874999999997V-3.575927734375L30.141015624999998 -3.3989746093749997Q29.00556640625 -3.2515136718749997 29.00556640625 -2.37412109375Q29.00556640625 -1.9759765624999999 29.2820556640625 -1.7216064453125Q29.558544921875 -1.467236328125 30.030419921874998 -1.467236328125Q30.68662109375 -1.467236328125 31.099511718749998 -1.9206787109375Q31.512402343749997 -2.37412109375 31.512402343749997 -3.0671874999999997Z M42.947998046875 -0.862646484375Q42.947998046875 1.2386718749999999 41.7314453125 2.3925537109375Q40.514892578125 3.5464355468749997 38.20712890625 3.5464355468749997Q36.680908203125 3.5464355468749997 35.788769531250004 3.11142578125V1.1501953125Q36.9537109375 1.8285156249999999 38.140771484375 1.8285156249999999Q39.320458984375 1.8285156249999999 39.969287109375 1.2054931640625Q40.618115234375004 0.5824707031249999 40.618115234375004 -0.48662109375V-1.083837890625H40.588623046875Q39.792333984375 0.184326171875 38.23662109375 0.184326171875Q36.79150390625 0.184326171875 35.943603515625 -0.833154296875Q35.095703125 -1.850634765625 35.095703125 -3.561181640625Q35.095703125 -5.478173828125 36.039453125 -6.606249999999999Q36.983203125 -7.734326171875 38.524169921875 -7.734326171875Q39.9029296875 -7.734326171875 40.588623046875 -6.672607421875H40.618115234375004V-7.55H42.947998046875ZM40.647607421875 -3.6275390625V-4.224755859375Q40.647607421875 -4.93994140625 40.2236572265625 -5.444995117187499Q39.79970703125 -5.9500488281249995 39.12138671875 -5.9500488281249995Q38.347216796875 -5.9500488281249995 37.904833984375 -5.345458984375Q37.462451171875 -4.740869140625 37.462451171875 -3.64228515625Q37.462451171875 -2.6985351562499997 37.88271484375 -2.1492431640625Q38.302978515625 -1.599951171875 39.032910156250004 -1.599951171875Q39.75546875 -1.599951171875 40.2015380859375 -2.1566162109375Q40.647607421875 -2.71328125 40.647607421875 -3.6275390625Z M49.819677734375 -5.448681640625Q49.39941406249999 -5.67724609375 48.8390625 -5.67724609375Q48.079638671874996 -5.67724609375 47.652001953124994 -5.1205810546875Q47.22436523437499 -4.563916015625 47.22436523437499 -3.605419921875V0.0H44.894482421875V-7.55H47.22436523437499V-6.14912109375H47.253857421875Q47.8068359375 -7.6827148437499995 49.244580078125 -7.6827148437499995Q49.613232421875 -7.6827148437499995 49.819677734375 -7.59423828125Z M57.185351562499996 0.0H54.980810546875V-1.083837890625H54.951318359374994Q54.19189453124999 0.184326171875 52.702539062499994 0.184326171875Q51.603955078125 0.184326171875 50.973559570312496 -0.4386962890625Q50.343164062499994 -1.06171875 50.343164062499994 -2.101318359375Q50.343164062499994 -4.298486328125 52.945849609374996 -4.637646484375L54.995556640625 -4.91044921875Q54.995556640625 -6.14912109375 53.653662109375 -6.14912109375Q52.30439453125 -6.14912109375 51.087841796875 -5.345458984375V-7.100244140625Q51.57446289062499 -7.3509277343749995 52.41867675781249 -7.542626953125Q53.262890625 -7.734326171875 53.955957031249994 -7.734326171875Q57.185351562499996 -7.734326171875 57.185351562499996 -4.5123046874999995ZM54.995556640625 -3.0671874999999997V-3.575927734375L53.624169921874994 -3.3989746093749997Q52.488720703125 -3.2515136718749997 52.488720703125 -2.37412109375Q52.488720703125 -1.9759765624999999 52.7652099609375 -1.7216064453125Q53.04169921875 -1.467236328125 53.513574218749994 -1.467236328125Q54.169775390625 -1.467236328125 54.582666015624994 -1.9206787109375Q54.995556640625 -2.37412109375 54.995556640625 -3.0671874999999997Z M71.0171875 0.0H68.694677734375V-4.305859375Q68.694677734375 -5.9500488281249995 67.485498046875 -5.9500488281249995Q66.910400390625 -5.9500488281249995 66.54912109375 -5.4560546875Q66.187841796875 -4.962060546875 66.187841796875 -4.224755859375V0.0H63.857958984375V-4.35009765625Q63.857958984375 -5.9500488281249995 62.6708984375 -5.9500488281249995Q62.073681640625004 -5.9500488281249995 61.7160888671875 -5.478173828125Q61.35849609375 -5.006298828125 61.35849609375 -4.195263671875V0.0H59.02861328125V-7.55H61.35849609375V-6.3703125H61.38798828125Q61.749267578125 -6.97490234375 62.4017822265625 -7.3546142578125Q63.054296875 -7.734326171875 63.828466796875 -7.734326171875Q65.42841796875 -7.734326171875 66.01826171875 -6.32607421875Q66.880908203125 -7.734326171875 68.55458984375 -7.734326171875Q71.0171875 -7.734326171875 71.0171875 -4.6966308593749995Z" fill="url(#txt)"/>
  </g>
</svg>
