<svg xmlns="http://www.w3.org/2000/svg" width="112.58" height="50" viewBox="0 0 112.58 50" role="img" aria-label="Email">
  <defs>
    <linearGradient id="ico" x1="0" y1="0" x2="0" y2="1">
      <stop offset="0%" stop-color="#fdfdfe"/><stop offset="48%" stop-color="#c4c8ce"/>
      <stop offset="52%" stop-color="#9296a0"/><stop offset="100%" stop-color="#e9ebee"/>
    </linearGradient>
    <linearGradient id="txt" x1="0" y1="0" x2="0" y2="1">
      <stop offset="0%" stop-color="#ffffff"/><stop offset="55%" stop-color="#d6d9de"/>
      <stop offset="100%" stop-color="#aeb2ba"/>
    </linearGradient>
    <linearGradient id="pill" x1="0" y1="0" x2="0" y2="1">
      <stop offset="0%" stop-color="#1b1d22"/><stop offset="100%" stop-color="#0e0f12"/>
    </linearGradient>
    <linearGradient id="edge" x1="0" y1="0" x2="0" y2="1">
      <stop offset="0%" stop-color="#6b6f77"/><stop offset="50%" stop-color="#3a3d44"/>
      <stop offset="100%" stop-color="#5a5e66"/>
    </linearGradient>
  </defs>
  <rect x="0" y="0" width="112.58" height="50" rx="25" fill="url(#pill)" stroke="url(#edge)" stroke-width="1.2"/>
  <rect x="1" y="1" width="110.58" height="1.4" rx="0.7" fill="#ffffff" opacity="0.10"/>
  <g transform="translate(20,14) scale(0.9167)">
    <path d="M1.5 8.67v13.909c0 .904-.732 1.636-1.636 1.636H1.636A1.636 1.636 0 0 1 0 19.366V5.457c0-.904.732-1.636 1.636-1.636h.734L12 11.09l9.63-7.269h.734c.904 0 1.636.732 1.636 1.636z" fill="url(#ico)"/>
  </g>
  <g transform="translate(54,32.55)">
    <path d="M7.55 0.0H1.2091796875V-10.572949218749999H7.306689453125V-8.633837890625H3.590673828125V-6.2818359374999995H7.0486328125V-4.35009765625H3.590673828125V-1.93173828125H7.55Z M21.005810546874997 0.0H18.683300781249997V-4.305859375Q18.683300781249997 -5.9500488281249995 17.47412109375 -5.9500488281249995Q16.8990234375 -5.9500488281249995 16.537744140624998 -5.4560546875Q16.176464843749997 -4.962060546875 16.176464843749997 -4.224755859375V0.0H13.84658203125V-4.35009765625Q13.84658203125 -5.9500488281249995 12.659521484374999 -5.9500488281249995Q12.0623046875 -5.9500488281249995 11.7047119140625 -5.478173828125Q11.347119140625 -5.006298828125 11.347119140625 -4.195263671875V0.0H9.017236328125V-7.55H11.347119140625V-6.3703125H11.376611328125Q11.737890625 -6.97490234375 12.390405273437501 -7.3546142578125Q13.042919921875 -7.734326171875 13.81708984375 -7.734326171875Q15.417041015625 -7.734326171875 16.006884765625 -6.32607421875Q16.86953125 -7.734326171875 18.543212890625 -7.734326171875Q21.005810546874997 -7.734326171875 21.005810546874997 -4.6966308593749995Z M29.130908203125 0.0H26.9263671875V-1.083837890625H26.896874999999998Q26.137451171875 0.184326171875 24.648095703124998 0.184326171875Q23.54951171875 0.184326171875 22.9191162109375 -0.4386962890625Q22.288720703124998 -1.06171875 22.288720703124998 -2.101318359375Q22.288720703124998 -4.298486328125 24.89140625 -4.637646484375L26.941113281249997 -4.91044921875Q26.941113281249997 -6.14912109375 25.59921875 -6.14912109375Q24.249951171875 -6.14912109375 23.0333984375 -5.345458984375V-7.100244140625Q23.52001953125 -7.3509277343749995 24.3642333984375 -7.542626953125Q25.208447265625 -7.734326171875 25.901513671874998 -7.734326171875Q29.130908203125 -7.734326171875 29.130908203125 -4.5123046874999995ZM26.941113281249997 -3.0671874999999997V-3.575927734375L25.569726562499998 -3.3989746093749997Q24.43427734375 -3.2515136718749997 24.43427734375 -2.37412109375Q24.43427734375 -1.9759765624999999 24.7107666015625 -1.7216064453125Q24.987255859375 -1.467236328125 25.459130859374998 -1.467236328125Q26.11533203125 -1.467236328125 26.528222656249998 -1.9206787109375Q26.941113281249997 -2.37412109375 26.941113281249997 -3.0671874999999997Z M32.153857421874996 -8.74443359375Q31.564013671875 -8.74443359375 31.18798828125 -9.0946533203125Q30.811962890624997 -9.444873046875 30.811962890624997 -9.95361328125Q30.811962890624997 -10.477099609375 31.18798828125 -10.80888671875Q31.564013671875 -11.140673828125 32.153857421874996 -11.140673828125Q32.75107421875 -11.140673828125 33.1234130859375 -10.80888671875Q33.495751953124994 -10.477099609375 33.495751953124994 -9.95361328125Q33.495751953124994 -9.42275390625 33.1234130859375 -9.083593749999999Q32.75107421875 -8.74443359375 32.153857421874996 -8.74443359375ZM33.304052734375 0.0H30.974169921875V-7.55H33.304052734375Z M37.595166015625 0.0H35.265283203125V-11.1775390625H37.595166015625Z" fill="url(#txt)"/>
  </g>
</svg>
