<svg xmlns="http://www.w3.org/2000/svg" width="135.03" height="50" viewBox="0 0 135.03 50" role="img" aria-label="LinkedIn">
  <defs>
    <linearGradient id="ico" x1="0" y1="0" x2="0" y2="1">
      <stop offset="0%" stop-color="#fdfdfe"/><stop offset="48%" stop-color="#c4c8ce"/>
      <stop offset="52%" stop-color="#9296a0"/><stop offset="100%" stop-color="#e9ebee"/>
    </linearGradient>
    <linearGradient id="txt" x1="0" y1="0" x2="0" y2="1">
      <stop offset="0%" stop-color="#ffffff"/><stop offset="55%" stop-color="#d6d9de"/>
      <stop offset="100%" stop-color="#aeb2ba"/>
    </linearGradient>
    <linearGradient id="pill" x1="0" y1="0" x2="0" y2="1">
      <stop offset="0%" stop-color="#1b1d22"/><stop offset="100%" stop-color="#0e0f12"/>
    </linearGradient>
    <linearGradient id="edge" x1="0" y1="0" x2="0" y2="1">
      <stop offset="0%" stop-color="#6b6f77"/><stop offset="50%" stop-color="#3a3d44"/>
      <stop offset="100%" stop-color="#5a5e66"/>
    </linearGradient>
  </defs>
  <rect x="0" y="0" width="135.03" height="50" rx="25" fill="url(#pill)" stroke="url(#edge)" stroke-width="1.2"/>
  <rect x="1" y="1" width="133.03" height="1.4" rx="0.7" fill="#ffffff" opacity="0.10"/>
  <g transform="translate(20,14) scale(0.9167)">
    <path d="M20.447 20.452h-3.554v-5.569c0-1.328-.027-3.037-1.852-3.037-1.853 0-2.136 1.445-2.136 2.939v5.667H9.351V9h3.414v1.561h.046c.477-.9 1.637-1.85 3.37-1.85 3.601 0 4.267 2.37 4.267 5.455v6.286zM5.337 7.433c-1.144 0-2.063-.926-2.063-2.065 0-1.138.92-2.063 2.063-2.063 1.14 0 2.064.925 2.064 2.063 0 1.139-.925 2.065-2.064 2.065zm1.782 13.019H3.555V9h3.564v11.452zM22.225 0H1.771C.792 0 0 .774 0 1.729v20.542C0 23.227.792 24 1.771 24h20.451C23.2 24 24 23.227 24 22.271V1.729C24 .774 23.2 0 22.222 0h.003z" fill="url(#ico)"/>
  </g>
  <g transform="translate(54,32.55)">
    <path d="M7.50576171875 0.0H1.2091796875V-10.572949218749999H3.590673828125V-1.93173828125H7.50576171875Z M9.8798828125 -8.74443359375Q9.2900390625 -8.74443359375 8.914013671875 -9.0946533203125Q8.53798828125 -9.444873046875 8.53798828125 -9.95361328125Q8.53798828125 -10.477099609375 8.914013671875 -10.80888671875Q9.2900390625 -11.140673828125 9.8798828125 -11.140673828125Q10.477099609375 -11.140673828125 10.849438476562499 -10.80888671875Q11.221777343749999 -10.477099609375 11.221777343749999 -9.95361328125Q11.221777343749999 -9.42275390625 10.849438476562499 -9.083593749999999Q10.477099609375 -8.74443359375 9.8798828125 -8.74443359375ZM11.030078125 0.0H8.7001953125V-7.55H11.030078125Z M20.283251953125 0.0H17.9607421875V-4.195263671875Q17.9607421875 -5.9500488281249995 16.70732421875 -5.9500488281249995Q16.102734374999997 -5.9500488281249995 15.711962890624998 -5.485546875Q15.321191406249998 -5.021044921875 15.321191406249998 -4.305859375V0.0H12.991308593749999V-7.55H15.321191406249998V-6.3555664062499995H15.350683593749999Q16.183837890625 -7.734326171875 17.776416015625 -7.734326171875Q20.283251953125 -7.734326171875 20.283251953125 -4.6229003906249995Z M29.691259765625 0.0H26.896874999999998L24.485888671875 -3.7455078125H24.456396484375V0.0H22.126513671875V-11.1775390625H24.456396484375V-4.062548828125H24.485888671875L26.734667968749996 -7.55H29.499560546874996L26.793652343749997 -4.003564453125Z M37.351855468749996 -3.11142578125H32.426660156249994Q32.54462890625 -1.467236328125 34.498486328125 -1.467236328125Q35.744531249999994 -1.467236328125 36.688281249999996 -2.057080078125V-0.376025390625Q35.64130859375 0.184326171875 33.967626953125 0.184326171875Q32.139111328125 0.184326171875 31.12900390625 -0.8294677734375Q30.118896484374996 -1.84326171875 30.118896484374996 -3.6570312499999997Q30.118896484374996 -5.537158203125 31.210107421874994 -6.6357421875Q32.301318359374996 -7.734326171875 33.893896484375 -7.734326171875Q35.545458984374996 -7.734326171875 36.448657226562496 -6.753710937499999Q37.351855468749996 -5.773095703125 37.351855468749996 -4.092041015625ZM35.191552734374994 -4.541796875Q35.191552734374994 -6.1638671875 33.879150390625 -6.1638671875Q33.318798828125 -6.1638671875 32.909594726562496 -5.699365234375Q32.500390624999994 -5.23486328125 32.411914062499996 -4.541796875Z M46.125781249999996 0.0H43.79589843749999V-1.039599609375H43.766406249999996Q42.970117187499994 0.184326171875 41.429150390625 0.184326171875Q40.013525390625 0.184326171875 39.15087890625 -0.8147216796875Q38.288232421874994 -1.81376953125 38.288232421874994 -3.605419921875Q38.288232421874994 -5.478173828125 39.23935546874999 -6.606249999999999Q40.190478515624996 -7.734326171875 41.73144531249999 -7.734326171875Q43.191308593749994 -7.734326171875 43.766406249999996 -6.6873535156249995H43.79589843749999V-11.1775390625H46.125781249999996ZM43.840136718749996 -3.67177734375V-4.239501953125Q43.840136718749996 -4.976806640625 43.412499999999994 -5.463427734374999Q42.98486328124999 -5.9500488281249995 42.299169921875 -5.9500488281249995Q41.525 -5.9500488281249995 41.089990234374994 -5.3417724609374995Q40.65498046875 -4.7334960937499995 40.65498046875 -3.67177734375Q40.65498046875 -2.676416015625 41.075244140624996 -2.13818359375Q41.495507812499994 -1.599951171875 42.240185546875 -1.599951171875Q42.94799804687499 -1.599951171875 43.394067382812494 -2.16767578125Q43.840136718749996 -2.7354003906249997 43.840136718749996 -3.67177734375Z M50.697070312499996 0.0H48.315576171874994V-10.572949218749999H50.697070312499996Z M60.1640625 0.0H57.841552734375V-4.195263671875Q57.841552734375 -5.9500488281249995 56.588134765625 -5.9500488281249995Q55.983544921875 -5.9500488281249995 55.5927734375 -5.485546875Q55.202001953125 -5.021044921875 55.202001953125 -4.305859375V0.0H52.872119140625V-7.55H55.202001953125V-6.3555664062499995H55.231494140625Q56.064648437500004 -7.734326171875 57.6572265625 -7.734326171875Q60.1640625 -7.734326171875 60.1640625 -4.6229003906249995Z" fill="url(#txt)"/>
  </g>
</svg>
