<svg xmlns="http://www.w3.org/2000/svg" width="900" height="464" viewBox="0 0 900 464" role="img" aria-label="Vishaal Pillay - AI Engineer">
  <defs>
    <linearGradient id="chrome" x1="0" y1="0" x2="0" y2="1">
      <stop offset="0%"  stop-color="#ffffff"/>
      <stop offset="16%" stop-color="#e9ebee"/>
      <stop offset="40%" stop-color="#bcc0c7"/>
      <stop offset="49%" stop-color="#777b83"/>
      <stop offset="50%" stop-color="#34373d"/>
      <stop offset="51%" stop-color="#6b6f77"/>
      <stop offset="64%" stop-color="#c4c8ce"/>
      <stop offset="82%" stop-color="#fbfbfc"/>
      <stop offset="100%" stop-color="#9aa0aa"/>
    </linearGradient>
    <linearGradient id="chromeSoft" x1="0" y1="0" x2="0" y2="1">
      <stop offset="0%"  stop-color="#f4f5f7"/>
      <stop offset="50%" stop-color="#bcc0c7"/>
      <stop offset="51%" stop-color="#9ca0a8"/>
      <stop offset="100%" stop-color="#eceef1"/>
    </linearGradient>
    <linearGradient id="rule" x1="0" y1="0" x2="1" y2="0">
      <stop offset="0%"   stop-color="#0a0a0b"/>
      <stop offset="22%"  stop-color="#8b8f97"/>
      <stop offset="50%"  stop-color="#f2f3f5"/>
      <stop offset="78%"  stop-color="#8b8f97"/>
      <stop offset="100%" stop-color="#0a0a0b"/>
    </linearGradient>
    <radialGradient id="glow" cx="50%" cy="34%" r="62%">
      <stop offset="0%"  stop-color="#212329"/>
      <stop offset="100%" stop-color="#0a0a0b"/>
    </radialGradient>
    <linearGradient id="border" x1="0" y1="0" x2="1" y2="1">
      <stop offset="0%"   stop-color="#3a3d44"/>
      <stop offset="50%"  stop-color="#6b6f77"/>
      <stop offset="100%" stop-color="#202228"/>
    </linearGradient>
    <filter id="soft" x="-10%" y="-10%" width="120%" height="130%">
      <feDropShadow dx="0" dy="3" stdDeviation="4" flood-color="#000000" flood-opacity="0.55"/>
    </filter>
  </defs>

  <rect x="1" y="1" width="898" height="462" rx="22" fill="url(#glow)"/>
  <rect x="1.5" y="1.5" width="897" height="461" rx="21" fill="none" stroke="url(#border)" stroke-width="1.5"/>

  <text x="450.0" y="48" text-anchor="middle" fill="#80848d" font-family="ui-monospace, Menlo, Consolas, monospace" font-size="13" letter-spacing="6">B.TECH CSE  ·  SRMIST</text>

  <g filter="url(#soft)">
    <g fill="url(#chrome)" stroke="#17181c" stroke-width="0.6"><g transform="translate(246.89,201.44)"><path d="M15.46875 0.0 1.482421875 -113.501953125H23.07421875L31.388671875 -36.287109375L38.80078125 -113.501953125H60.392578125L46.40625 0.0Z M66.935546875 0.0V-113.4375H88.849609375V0.0Z M125.814453125 1.03125Q110.28125 1.03125 103.4169921875 -6.703125Q96.552734375 -14.4375 96.552734375 -31.32421875V-42.41015625H118.982421875V-28.23046875Q118.982421875 -24.298828125 120.1748046875 -22.0751953125Q121.3671875 -19.8515625 124.33203125 -19.8515625Q127.42578125 -19.8515625 128.6181640625 -21.65625Q129.810546875 -23.4609375 129.810546875 -27.5859375Q129.810546875 -32.806640625 128.779296875 -36.3193359375Q127.748046875 -39.83203125 125.2021484375 -43.0224609375Q122.65625 -46.212890625 118.14453125 -50.466796875L107.9609375 -60.134765625Q96.552734375 -70.8984375 96.552734375 -84.755859375Q96.552734375 -99.2578125 103.2880859375 -106.86328125Q110.0234375 -114.46875 122.78515625 -114.46875Q138.3828125 -114.46875 144.9248046875 -106.154296875Q151.466796875 -97.83984375 151.466796875 -80.888671875H128.392578125V-88.6875Q128.392578125 -91.0078125 127.0712890625 -92.296875Q125.75 -93.5859375 123.494140625 -93.5859375Q120.787109375 -93.5859375 119.5302734375 -92.0712890625Q118.2734375 -90.556640625 118.2734375 -88.171875Q118.2734375 -85.787109375 119.5625 -83.015625Q120.8515625 -80.244140625 124.654296875 -76.634765625L137.73828125 -64.06640625Q141.669921875 -60.328125 144.95703125 -56.1708984375Q148.244140625 -52.013671875 150.2421875 -46.5029296875Q152.240234375 -40.9921875 152.240234375 -33.064453125Q152.240234375 -17.080078125 146.3427734375 -8.0244140625Q140.4453125 1.03125 125.814453125 1.03125Z M160.78125 0.0V-113.4375H183.33984375V-72.896484375H194.0390625V-113.4375H216.59765625V0.0H194.0390625V-51.43359375H183.33984375V0.0Z M224.55859375 0.0 235.515625 -113.4375H273.994140625L284.7578125 0.0H263.294921875L261.68359375 -18.3046875H248.01953125L246.6015625 0.0ZM249.630859375 -36.416015625H259.943359375L254.98046875 -94.1015625H253.94921875Z M289.625 0.0 300.58203125 -113.4375H339.060546875L349.82421875 0.0H328.361328125L326.75 -18.3046875H313.0859375L311.66796875 0.0ZM314.697265625 -36.416015625H325.009765625L320.046875 -94.1015625H319.015625Z M357.78515625000006 0.0V-113.4375H380.47265625000006V-19.3359375H403.80468750000006V0.0Z"/></g><g transform="translate(286.93,328.88)"><path d="M5.02734375 0.0V-113.4375H34.998046875Q44.408203125 -113.4375 49.9189453125 -109.248046875Q55.4296875 -105.05859375 57.814453125 -97.32421875Q60.19921875 -89.58984375 60.19921875 -78.890625Q60.19921875 -68.578125 58.201171875 -60.9404296875Q56.203125 -53.302734375 51.0791015625 -49.11328125Q45.955078125 -44.923828125 36.544921875 -44.923828125H27.328125V0.0ZM27.328125 -65.291015625H28.6171875Q34.93359375 -65.291015625 36.3515625 -68.8359375Q37.76953125 -72.380859375 37.76953125 -79.27734375Q37.76953125 -85.72265625 36.3837890625 -89.2353515625Q34.998046875 -92.748046875 29.841796875 -92.748046875H27.328125Z M67.322265625 0.0V-113.4375H89.236328125V0.0Z M99.259765625 0.0V-113.4375H121.947265625V-19.3359375H145.279296875V0.0Z M152.724609375 0.0V-113.4375H175.412109375V-19.3359375H198.744140625V0.0Z M203.095703125 0.0 214.052734375 -113.4375H252.53125L263.294921875 0.0H241.83203125L240.220703125 -18.3046875H226.556640625L225.138671875 0.0ZM228.16796875 -36.416015625H238.48046875L233.517578125 -94.1015625H232.486328125Z M284.984375 0.0V-37.318359375L266.873046875 -113.4375H289.3671875L295.68359375 -75.0234375L302.0 -113.4375H324.4296875L306.3828125 -37.318359375V0.0Z"/></g></g>
  </g>

  <rect x="267.2" y="358.9" width="365.6" height="2" fill="url(#rule)"/>

  <g fill="url(#chromeSoft)"><g transform="translate(283.09,418.88)"><path d="M4.69757421875 -9.97117578125Q2.45758203125 -6.82238671875 2.111990234375 -4.934392578125Q1.7663984375000001 -3.0463984375 3.0656035156250003 -2.208Q4.36480859375 -1.3696015625 6.95040625 -1.28L6.64320703125 0.0Q4.54398828125 -0.128 2.6111874999999998 -0.16Q0.67838671875 -0.192 -1.01121484375 -0.192Q-2.56001171875 -0.192 -3.6096093750000002 -0.16Q-4.65920703125 -0.128 -5.68320703125 0.0L-5.3760078125 -1.28Q-4.403203125 -1.51040234375 -3.424001953125 -2.150404296875Q-2.44480078125 -2.79040625 -1.26719921875 -4.0256113281250006Q-0.08959765625 -5.26081640625 1.305609375 -7.257625L28.595191406250002 -45.632Q29.03040234375 -45.6063984375 29.472015625 -45.6063984375Q29.91362890625 -45.6063984375 30.32323828125 -45.632L32.88323828125 -5.376Q33.07523828125 -3.072 34.06723828125 -2.208Q35.05923828125 -1.344 36.019238281250004 -1.28L35.763238281250004 0.0Q34.36803125 -0.128 32.20481640625 -0.16Q30.041601562500002 -0.192 28.019191406250002 -0.192Q25.5231796875 -0.192 23.29596875 -0.16Q21.0687578125 -0.128 19.69915234375 0.0L19.95515234375 -1.28Q23.02715234375 -1.408 24.313552734375 -2.4Q25.599953125 -3.392 25.459152343750002 -6.656000000000001L23.78235546875 -37.55515625L24.81919140625 -38.4ZM10.09919140625 -18.432000000000002H28.78719140625L28.275191406250002 -17.152H8.94719140625Z M53.120875 -6.784Q52.544875000000005 -4.48 52.608875000000005 -3.3280000000000003Q52.672875000000005 -2.176 53.696875000000006 -1.792Q54.720875 -1.408 56.896875 -1.28L56.640875 0.0Q55.05366796875 -0.128 52.634455078125 -0.16Q50.2152421875 -0.192 47.744828125 -0.192Q45.05681640625 -0.192 42.76668505271084 -0.16Q40.47655369917169 -0.128 38.9767890625 0.0L39.296789062500004 -1.28Q41.4087890625 -1.408 42.5927890625 -1.792Q43.7767890625 -2.176 44.4807890625 -3.3280000000000003Q45.1847890625 -4.48 45.7607890625 -6.784L54.2087890625 -38.528Q54.8487890625 -40.896 54.7207890625 -42.016000000000005Q54.5927890625 -43.136 53.6007890625 -43.55200000000001Q52.6087890625 -43.968 50.4327890625 -44.032000000000004L50.7527890625 -45.312Q52.13358261564961 -45.248 54.48093165600394 -45.184Q56.82828069635827 -45.12 59.520828125 -45.12Q61.991242187500006 -45.12 64.384853515625 -45.184Q66.77846484375 -45.248 68.480875 -45.312L68.160875 -44.032000000000004Q65.984875 -43.968 64.76887500000001 -43.55200000000001Q63.552875 -43.136 62.880875 -42.016000000000005Q62.208875000000006 -40.896 61.568875000000006 -38.528Z M94.7096328125 -22.144000000000002 95.06803125 -23.424H106.66486328125L106.30646484375 -22.144000000000002ZM101.30163671875 -23.424Q103.2984296875 -23.424 104.66163085937501 -24.230396484375Q106.02483203125 -25.03679296875 106.9528359375 -26.3167890625Q107.88083984375 -27.59678515625 108.52724414062499 -29.004783203125Q109.17364843749999 -30.412781250000002 109.68564843749999 -31.615984375H111.14484765625Q110.00565234375 -28.1983984375 109.538453125 -26.336001953125Q109.07125390625 -24.47360546875 108.61045312499999 -22.784Q108.34165234375 -21.708796875 108.060052734375 -20.56319921875Q107.778453125 -19.4176015625 107.4520546875 -17.868806640625Q107.12565624999999 -16.32001171875 106.6392578125 -13.952015625H105.18005859375Q105.33365625 -15.39841015625 105.429650390625 -16.85120703125Q105.52564453125001 -18.30400390625 105.20563867187501 -19.49440234375Q104.8856328125 -20.68480078125 103.8744296875 -21.414400390625Q102.8632265625 -22.144000000000002 100.81523046875 -22.144000000000002ZM118.31283984375 -33.792Q118.8376328125 -37.568 118.5560234375 -39.775999999999996Q118.2744140625 -41.984 116.776810546875 -42.912000000000006Q115.27920703125 -43.84 112.05361718750001 -43.84H108.277671875Q106.11447265625 -43.84 104.93047265625 -43.488Q103.74647265625 -43.136 103.0552734375 -42.016000000000005Q102.36407421875 -40.896 101.72407421875 -38.528L93.224875 -6.784Q92.59767578125 -4.48 92.687275390625 -3.3280000000000003Q92.776875 -2.176 93.794474609375 -1.824Q94.81207421875 -1.472 96.9752734375 -1.472H100.87922656250001Q104.71921484375 -1.472 107.08721484374999 -2.56Q109.45521484375 -3.648 111.151220703125 -6.112Q112.8472265625 -8.576 114.4856328125 -12.8H115.94483203125Q115.62483203125001 -11.968 115.247232421875 -10.751999999999999Q114.8696328125 -9.536 114.5496328125 -8.192Q114.2296328125 -6.976 113.7176328125 -4.704Q113.2056328125 -2.432 112.83443359374999 0.0Q109.57043359375 -0.128 105.49363476562499 -0.16Q101.4168359375 -0.192 98.21683593750001 -0.192Q96.74483203125 -0.192 94.453626953125 -0.192Q92.162421875 -0.192 89.493615234375 -0.16Q86.82480859375 -0.128 84.09840234375 -0.096Q81.37199609375 -0.064 78.96558984375 0.0L79.2727890625 -1.28Q81.4487890625 -1.408 82.6647890625 -1.792Q83.8807890625 -2.176 84.559189453125 -3.3280000000000003Q85.23758984375 -4.48 85.8647890625 -6.784L94.36398828125 -38.528Q95.00398828125 -40.896 94.901587890625 -42.016000000000005Q94.7991875 -43.136 93.8071875 -43.55200000000001Q92.81518750000001 -43.968 90.6391875 -44.032000000000004L90.9591875 -45.312Q93.4039921875 -45.248 96.13039843749999 -45.215999999999994Q98.8568046875 -45.184 101.525611328125 -45.152Q104.19441796875 -45.12 106.485623046875 -45.12Q108.77682812500001 -45.12 110.24883203125 -45.12Q113.09043359374999 -45.12 116.661634765625 -45.152Q120.2328359375 -45.184 123.08723828125 -45.312Q122.25523828125 -43.072 121.634439453125 -41.068806640625Q121.013640625 -39.06561328125 120.65523828125 -37.76Q120.34803906249999 -36.608000000000004 120.1240390625 -35.558400390625Q119.9000390625 -34.50880078125 119.7720390625 -33.792Z M129.7824453125 0.0H123.062375L130.7679765625 -27.52000390625Q131.03677734375 -28.33920703125 131.177576171875 -29.196802734375Q131.318375 -30.0543984375 131.068775390625 -30.643193359375Q130.81917578125 -31.23198828125 129.88478125 -31.23198828125Q128.56638671875 -31.23198828125 127.52958984375 -29.95839453125Q126.49279296875 -28.68480078125 125.2383984375 -25.20321875L124.278390625 -22.528H123.062390625L124.70079296875 -27.26400390625Q126.070390625 -31.167996093750002 128.156791015625 -32.512Q130.24319140625 -33.85600390625 132.54720703125 -33.85600390625Q134.5824140625 -33.85600390625 135.56802148437498 -33.030404296875005Q136.55362890625 -32.2048046875 136.75843554687498 -30.886404296875Q136.9632421875 -29.568003906250002 136.732845703125 -28.00000390625Q136.50244921875 -26.43200390625 136.11844921875 -24.89600390625ZM132.43202734375 -12.47994921875Q134.74883203125 -18.64957421875 136.880033203125 -22.751986328125Q139.01123437500002 -26.854398437500002 141.06563476562502 -29.312001953125Q143.12003515625 -31.76960546875 145.27683593749998 -32.812804687500005Q147.43363671875 -33.85600390625 149.78883984375 -33.85600390625Q152.8352421875 -33.85600390625 154.025646484375 -32.448005859375Q155.21605078125 -31.0400078125 155.13285351562502 -28.832007812500002Q155.04965625 -26.6240078125 154.2560546875 -24.19200390625L148.022453125 -5.44Q147.43365234375 -3.69919921875 147.60645703125 -2.713607421875Q147.77926171875 -1.728015625 148.99525 -1.728015625Q150.0832421875 -1.728015625 151.20963867187498 -2.937607421875Q152.33603515625 -4.14719921875 153.61603125 -7.75678515625L154.5504375 -10.368H155.7664375L154.1664375 -5.696Q153.2704375 -3.008 151.92003515625 -1.6Q150.5696328125 -0.192 149.06562890625 0.352Q147.561625 0.896 146.1408203125 0.896Q144.51521484375 0.896 143.427208984375 0.37119921875Q142.339203125 -0.1536015625 141.76319921875 -1.04960546875Q141.00799609375 -2.2400078125 141.193591796875 -4.128009765625Q141.3791875 -6.01601171875 142.21119140625 -8.473625L148.17598437499998 -26.43200390625Q148.50878515624998 -27.37920703125 148.70718359375 -28.531201171875Q148.90558203125 -29.6831953125 148.623984375 -30.553587890625Q148.34238671875 -31.42398046875 147.024 -31.42398046875Q145.59040625 -31.42398046875 143.92641015625 -30.00317578125Q142.2624140625 -28.58237109375 140.46401757812498 -26.009564453125Q138.66562109375 -23.4367578125 136.9120234375 -19.92315234375Q135.15842578125 -16.409546875 133.55842773437502 -12.2559453125Q131.9584296875 -8.10234375 130.6656328125 -3.51994921875Z M173.34160937500002 -14.4256015625 175.38963671875 -14.47680859375Q173.00883203125 -13.2608125 171.09523437500002 -12.256015625Q169.18163671875 -11.25121875 168.029640625 -10.406421875Q166.87764453125 -9.561625 166.87764453125 -8.768027343750001Q166.87764453125 -8.15362890625 167.71604101562502 -7.648031250000001Q168.5544375 -7.14243359375 170.397625 -6.65603515625L175.3000390625 -5.2480234375Q177.28403515625 -4.710421875 178.92243554687502 -3.980818359375Q180.5608359375 -3.25121484375 181.552837890625 -2.131208984375Q182.54483984375 -1.011203125 182.54483984375 0.76800390625Q182.54483984375 2.62401953125 181.328830078125 4.6528203125Q180.1128203125 6.6816210937500005 177.73841015624998 8.43521484375Q175.364 10.18880859375 171.850400390625 11.2896015625Q168.33680078125002 12.390394531250001 163.690421875 12.390394531250001Q160.3880234375 12.390394531250001 157.994416015625 11.78239453125Q155.60080859375 11.17439453125 154.34 10.08639453125Q153.07919140625 8.99839453125 153.07919140625 7.56479296875Q153.07919140625 6.4767890625 153.8216015625 5.3951914062499995Q154.56401171875 4.31359375 155.88882421875002 3.366400390625Q157.21363671875 2.41920703125 159.02484375 1.638416015625Q160.83605078125 0.857625 163.03764453125 0.371234375L163.40883984375 1.331234375Q161.10484375000001 2.53443359375 160.215244140625 3.987228515625Q159.32564453125 5.4400234375 159.32564453125 6.88641796875Q159.32564453125 9.203203125 160.9768359375 10.252798828125Q162.62802734375 11.30239453125 165.1368203125 11.30239453125Q167.13361328125 11.30239453125 169.27120703125001 10.68159765625Q171.40880078125 10.06080078125 173.245595703125 9.0048046875Q175.08239062500002 7.94880859375 176.189587890625 6.560013671875Q177.29678515625 5.17121875 177.29678515625 3.6352226562500003Q177.29678515625 2.59841796875 176.5991796875 2.233615234375Q175.90157421875 1.8688125 174.45517187500002 1.5232109375L164.88078515625 -1.0239921875Q163.331984375 -1.43359375 162.31438085937498 -2.39999609375Q161.29677734375 -3.3663984375 161.29677734375 -4.97919921875Q161.29677734375 -6.41280859375 162.39758984374998 -7.801611328125Q163.49840234375 -9.1904140625 166.141611328125 -10.784011718750001Q168.78482031250002 -12.377609375 173.34160937500002 -14.4256015625ZM176.43919921875 -32.691203125Q174.67281640625 -32.691203125 173.412025390625 -31.59680859375Q172.151234375 -30.5024140625 171.28723828124998 -28.774419921875Q170.4232421875 -27.04642578125 169.949642578125 -25.107228515625003Q169.47604296875 -23.168031250000002 169.27124218749998 -21.440025390625003Q169.06644140625 -19.71201953125 169.06644140625 -18.63680078125Q169.06644140625 -16.576 169.86643359375 -15.7056015625Q170.66642578125 -14.835203125 172.02321484375 -14.835203125Q174.16079687500002 -14.835203125 175.53678906250002 -16.249599609375Q176.91278125 -17.66399609375 177.712779296875 -19.807994140625Q178.51277734375 -21.9519921875 178.813578125 -24.204796875Q179.11437890625 -26.4576015625 179.11437890625 -28.1856171875Q179.11437890625 -30.19520703125 178.608783203125 -31.443205078125Q178.1031875 -32.691203125 176.43919921875 -32.691203125ZM176.97681640625 -33.843203125Q180.89362500000001 -33.843203125 183.36403320312502 -32.147203125000004Q185.83444140625 -30.451203125 185.83444140625 -26.6496015625Q185.83444140625 -23.5776015625 184.036037109375 -20.576001953125Q182.2376328125 -17.574402343750002 178.96722460937502 -15.628802734375Q175.69681640625 -13.683203125 171.22960546875 -13.683203125Q167.51759375 -13.683203125 164.995986328125 -15.385603515625Q162.47437890625 -17.08800390625 162.47437890625 -20.723207031250002Q162.47437890625 -22.5664140625 163.293583984375 -24.8384140625Q164.1127890625 -27.110414062500002 165.83439648437502 -29.152011718750003Q167.55600390625 -31.193609375 170.308009765625 -32.51840625Q173.060015625 -33.843203125 176.97681640625 -33.843203125ZM181.6872265625 -30.50240234375 180.49682421875 -30.95040234375Q181.41842578125 -33.22880859375 183.588025390625 -34.886408203125Q185.75762500000002 -36.5440078125 188.16402734375 -36.5440078125Q189.943234375 -36.5440078125 190.98003515624998 -35.558404296875Q192.0168359375 -34.57280078125 192.0168359375 -32.627203125Q192.0168359375 -30.82240234375 191.10803515625 -29.951999999999998Q190.199234375 -29.08159765625 189.13683203125 -29.08159765625Q188.11283203125 -29.08159765625 187.18483203125 -29.785599609374998Q186.25683203125 -30.4896015625 186.05203125000003 -32.00000390625Q185.84723046875 -33.51040625 186.87123046875 -35.865609375L187.5880234375 -35.62240625Q184.98962890625 -34.636808593750004 183.81202734375 -33.497607421875Q182.63442578125 -32.35840625 181.6872265625 -30.50240234375Z M200.951984375 -44.287984375Q201.20798046875 -46.31040625 202.756791015625 -47.61601171875Q204.3056015625 -48.921617187500004 206.25122265625 -48.921617187500004Q208.14563671874998 -48.921617187500004 209.17604296874998 -47.731218750000004Q210.20644921874998 -46.5408203125 209.950453125 -44.7744140625Q209.69445703125 -42.84159765625 208.13924609375 -41.503990234375Q206.58403515625 -40.166382812500004 204.58721484375 -40.166382812500004Q202.75680078125 -40.166382812500004 201.72639453124998 -41.35678125Q200.69598828124998 -42.5471796875 200.951984375 -44.287984375ZM198.82717578125 -27.52000390625Q200.0815703125 -31.23198828125 197.99517968749998 -31.23198828125Q196.6255859375 -31.23198828125 195.53758984375 -29.779197265625Q194.44959375 -28.32640625 193.2463984375 -25.20321875L192.23519140624998 -22.528H191.01919140625L192.70879296875 -27.26400390625Q193.6559921875 -29.900800781250002 195.006392578125 -31.315201171875003Q196.35679296875 -32.7296015625 197.931197265625 -33.292802734375Q199.5056015625 -33.85600390625 200.9648125 -33.85600390625Q203.08961718749998 -33.85600390625 204.1520234375 -33.02400390625Q205.2144296875 -32.19200390625 205.49603515625 -30.854404296875003Q205.777640625 -29.516804687500002 205.52164453125 -27.9488046875Q205.2656484375 -26.3808046875 204.7536484375 -24.89600390625L197.94405078124998 -5.44Q197.32965234374998 -3.635203125 197.57285351562498 -2.681609375Q197.81605468749999 -1.728015625 198.91684765624998 -1.728015625Q200.0560390625 -1.728015625 201.15683593749998 -2.988806640625Q202.2576328125 -4.24959765625 203.588828125 -7.75678515625L204.57443359375 -10.368H205.79043359374998L204.139234375 -5.696Q203.23043359375 -3.16159765625 201.91203124999998 -1.727998046875Q200.59362890625 -0.2943984375 199.06402539062498 0.30080078125Q197.534421875 0.896 196.01121874999998 0.896Q193.24641796875 0.896 192.12640820312498 -0.36479882812500003Q191.0063984375 -1.62559765625 191.13439062499998 -3.756802734375Q191.2623828125 -5.8880078125 192.1711875 -8.473625Z M217.9384453125 0.0H211.218375L218.9239765625 -27.52000390625Q219.19277734375 -28.33920703125 219.333576171875 -29.196802734375Q219.474375 -30.0543984375 219.224775390625 -30.643193359375Q218.97517578125002 -31.23198828125 218.04078125 -31.23198828125Q216.72238671875002 -31.23198828125 215.68558984375 -29.95839453125Q214.64879296875 -28.68480078125 213.3943984375 -25.20321875L212.434390625 -22.528H211.218390625L212.85679296875 -27.26400390625Q214.226390625 -31.167996093750002 216.312791015625 -32.512Q218.39919140625 -33.85600390625 220.70320703125 -33.85600390625Q222.7384140625 -33.85600390625 223.724021484375 -33.030404296875005Q224.70962890625 -32.2048046875 224.91443554687498 -30.886404296875Q225.1192421875 -29.568003906250002 224.888845703125 -28.00000390625Q224.65844921875 -26.43200390625 224.27444921875 -24.89600390625ZM220.58802734375 -12.47994921875Q222.90483203125 -18.64957421875 225.03603320312502 -22.751986328125Q227.16723437500002 -26.854398437500002 229.22163476562503 -29.312001953125Q231.27603515625 -31.76960546875 233.4328359375 -32.812804687500005Q235.58963671875 -33.85600390625 237.94483984375 -33.85600390625Q240.9912421875 -33.85600390625 242.181646484375 -32.448005859375Q243.37205078125 -31.0400078125 243.28885351562502 -28.832007812500002Q243.20565625 -26.6240078125 242.41205468750002 -24.19200390625L236.178453125 -5.44Q235.58965234375 -3.69919921875 235.76245703125 -2.713607421875Q235.93526171875 -1.728015625 237.15125 -1.728015625Q238.2392421875 -1.728015625 239.365638671875 -2.937607421875Q240.49203515625 -4.14719921875 241.77203125 -7.75678515625L242.7064375 -10.368H243.9224375L242.3224375 -5.696Q241.42643750000002 -3.008 240.07603515625001 -1.6Q238.7256328125 -0.192 237.22162890625 0.352Q235.717625 0.896 234.29682031250002 0.896Q232.67121484375 0.896 231.583208984375 0.37119921875Q230.49520312500002 -0.1536015625 229.91919921875 -1.04960546875Q229.16399609375 -2.2400078125 229.34959179687502 -4.128009765625Q229.5351875 -6.01601171875 230.36719140625002 -8.473625L236.331984375 -26.43200390625Q236.66478515625 -27.37920703125 236.86318359375 -28.531201171875Q237.06158203125 -29.6831953125 236.779984375 -30.553587890625Q236.49838671875 -31.42398046875 235.18 -31.42398046875Q233.74640625 -31.42398046875 232.08241015625 -30.00317578125Q230.4184140625 -28.58237109375 228.620017578125 -26.009564453125Q226.82162109375 -23.4367578125 225.06802343750002 -19.92315234375Q223.31442578125 -16.409546875 221.71442773437502 -12.2559453125Q220.1144296875 -8.10234375 218.8216328125 -3.51994921875Z M253.8944609375 -14.310386718750001Q257.1712421875 -15.47518359375 259.897630859375 -16.691185546874998Q262.62401953125 -17.9071875 264.33921875 -19.302390625Q266.694421875 -21.2863984375 268.09602539062496 -24.02560546875Q269.49762890625 -26.7648125 269.49762890625 -30.016019531250002Q269.49762890625 -31.6800078125 269.24162890624996 -32.160005859375005Q268.98562890625 -32.64000390625 268.47362890625 -32.64000390625Q266.9376328125 -32.64000390625 265.152037109375 -31.225603515625004Q263.36644140625003 -29.811203125000002 261.63844531250004 -27.36000390625Q259.91044921875 -24.9088046875 258.470453125 -21.79840625Q257.03045703125 -18.6880078125 256.166458984375 -15.2128125Q255.3024609375 -11.7376171875 255.3024609375 -8.33282421875Q255.3024609375 -4.97921875 256.5696640625 -3.5776210937500004Q257.8368671875 -2.1760234375 259.897671875 -2.1760234375Q261.996859375 -2.1760234375 264.556859375 -3.4944179687499997Q267.116859375 -4.8128125 269.5744609375 -8.192L270.5984609375 -7.68Q269.34405859375 -5.5680000000000005 267.29605468750003 -3.5840000000000005Q265.24805078125 -1.6 262.64964257812505 -0.35200000000000004Q260.05123437500004 0.896 257.0688203125 0.896Q254.41921484375 0.896 252.377607421875 -0.12800000000000006Q250.336 -1.1520000000000001 249.215994140625 -3.168Q248.09598828125002 -5.184 248.09598828125002 -8.128Q248.09598828125002 -11.0848125 249.151990234375 -14.566416015624998Q250.2079921875 -18.04801953125 252.153595703125 -21.452818359375Q254.09919921875002 -24.8576171875 256.80640429687503 -27.680013671875003Q259.513609375 -30.50241015625 262.816015625 -32.17920703125Q266.118421875 -33.85600390625 269.88162890625 -33.85600390625Q272.14724609375 -33.85600390625 273.70245703125 -32.736000000000004Q275.25766796875 -31.615996093750002 275.25766796875 -29.350386718750002Q275.25766796875 -26.81598828125 273.798470703125 -24.620789062500002Q272.3392734375 -22.42558984375 269.92007617187505 -20.614390625Q267.50087890625 -18.80319140625 264.63367968750003 -17.39519140625Q261.76648046875 -15.98719140625 258.944076171875 -14.96319140625Q256.121671875 -13.93919140625 253.83046093750002 -13.3119921875Z M282.68246093749997 -14.310386718750001Q285.95924218749997 -15.47518359375 288.685630859375 -16.691185546874998Q291.41201953125 -17.9071875 293.12721875 -19.302390625Q295.482421875 -21.2863984375 296.88402539062497 -24.02560546875Q298.28562890625 -26.7648125 298.28562890625 -30.016019531250002Q298.28562890625 -31.6800078125 298.02962890624997 -32.160005859375005Q297.77362890625 -32.64000390625 297.26162890625 -32.64000390625Q295.7256328125 -32.64000390625 293.940037109375 -31.225603515625004Q292.15444140625 -29.811203125000002 290.4264453125 -27.36000390625Q288.69844921875 -24.9088046875 287.25845312499996 -21.79840625Q285.81845703125 -18.6880078125 284.954458984375 -15.2128125Q284.0904609375 -11.7376171875 284.0904609375 -8.33282421875Q284.0904609375 -4.97921875 285.3576640625 -3.5776210937500004Q286.6248671875 -2.1760234375 288.68567187499997 -2.1760234375Q290.784859375 -2.1760234375 293.344859375 -3.4944179687499997Q295.904859375 -4.8128125 298.3624609375 -8.192L299.3864609375 -7.68Q298.13205859375 -5.5680000000000005 296.0840546875 -3.5840000000000005Q294.03605078124997 -1.6 291.43764257812495 -0.35200000000000004Q288.839234375 0.896 285.8568203125 0.896Q283.20721484374997 0.896 281.16560742187494 -0.12800000000000006Q279.12399999999997 -1.1520000000000001 278.00399414062497 -3.168Q276.88398828124997 -5.184 276.88398828124997 -8.128Q276.88398828124997 -11.0848125 277.939990234375 -14.566416015624998Q278.9959921875 -18.04801953125 280.941595703125 -21.452818359375Q282.88719921874997 -24.8576171875 285.594404296875 -27.680013671875003Q288.301609375 -30.50241015625 291.604015625 -32.17920703125Q294.906421875 -33.85600390625 298.66962890625 -33.85600390625Q300.93524609375 -33.85600390625 302.49045703125 -32.736000000000004Q304.04566796874997 -31.615996093750002 304.04566796874997 -29.350386718750002Q304.04566796874997 -26.81598828125 302.586470703125 -24.620789062500002Q301.1272734375 -22.42558984375 298.70807617187495 -20.614390625Q296.28887890625 -18.80319140625 293.4216796875 -17.39519140625Q290.55448046875 -15.98719140625 287.732076171875 -14.96319140625Q284.909671875 -13.93919140625 282.6184609375 -13.3119921875Z M313.59524609375 0.0H306.87517578125L314.58077734375 -27.52000390625Q315.16957421875003 -29.5551953125 314.96477539062505 -30.393591796875Q314.7599765625 -31.23198828125 313.74878125 -31.23198828125Q312.43038671875 -31.23198828125 311.342390625 -29.881595703125Q310.25439453125 -28.531203125 309.05119921875 -25.20321875L308.09119140625 -22.528H306.87519140625L308.51359375 -27.26400390625Q309.46079296875 -29.900800781250002 310.78559375 -31.315201171875003Q312.11039453125 -32.7296015625 313.633599609375 -33.292802734375Q315.1568046875 -33.85600390625 316.616015625 -33.85600390625Q318.58721875 -33.85600390625 319.483224609375 -33.030404296875005Q320.37923046875 -32.2048046875 320.571236328125 -30.8608046875Q320.7632421875 -29.516804687500002 320.53924609374997 -27.9488046875Q320.31525 -26.3808046875 319.93125 -24.89600390625ZM330.01764453125 -32.3200078125Q328.59684765625 -32.3200078125 327.06725 -31.142419921875003Q325.53765234375 -29.96483203125 323.93125390625 -27.57764453125Q322.32485546875 -25.190457031250002 320.6800546875 -21.606458984375003Q319.03525390625 -18.0224609375 317.39684960937495 -13.26083984375Q315.7584453125 -8.49921875 314.1584375 -2.49596484375L315.707234375 -10.84157421875Q317.78083203125 -17.3567890625 319.560029296875 -21.753595703125Q321.3392265625 -26.15040234375 323.09282421875 -28.83200390625Q324.84642187500003 -31.51360546875 326.740822265625 -32.684804687500005Q328.63522265625 -33.85600390625 330.836828125 -33.85600390625Q332.87204296875 -33.85600390625 333.985650390625 -32.67839453125Q335.0992578125 -31.50078515625 335.0992578125 -29.69597265625Q335.0992578125 -28.2495625 334.401654296875 -27.039953125Q333.70405078125 -25.83034375 332.58404296875 -25.1199375Q331.46403515625 -24.40953125 330.06882421875 -24.40953125Q328.72480859375 -24.40953125 327.892802734375 -25.139138671875003Q327.060796875 -25.86874609375 327.060796875 -27.212761718750002Q327.060796875 -28.415972656250002 327.56000390625 -29.388783203125Q328.0592109375 -30.36159375 328.89122265624997 -31.059201171875003Q329.723234375 -31.75680859375 330.760046875 -32.07680859375Q330.61924609375 -32.1920078125 330.44644531250003 -32.2560078125Q330.27364453125 -32.3200078125 330.01764453125 -32.3200078125Z"/></g></g>
</svg>